<?xml version="1.0" ?><!DOCTYPE svg  PUBLIC '-//W3C//DTD SVG 1.1//EN'  'http://www.w3.org/Graphics/SVG/1.1/DTD/svg11.dtd'><svg enable-background="new 0 0 128 128" id="Слой_1" version="1.1" viewBox="0 0 128 128" xml:space="preserve" xmlns="http://www.w3.org/2000/svg" xmlns:xlink="http://www.w3.org/1999/xlink"><g><g><path d="M95.5,39.1L82.1,25.7L66.8,40.9l12.7,12.7c3.5,3.5,3.5,9.2,0,12.7l-21,21c-3.5,3.5-9.2,3.5-12.7,0    L28.2,69.8c-0.8-0.8-2.2-0.8-3.1,0l-1,1c-0.8,0.8-0.8,2.2,0,3.1L51.3,101c5.3,5.3,13.8,5.3,19.1,0l25.1-25.1    C105.6,65.7,105.6,49.2,95.5,39.1z" fill="#F0F1EE"/></g><g><rect fill="#898288" height="4.5" transform="matrix(0.7071 0.7071 -0.7071 0.7071 37.9881 -69.6562)" width="16.2" x="95" y="8.8"/></g><g><path d="M60.8,106.2c-3.9,0-7.6-1.5-10.4-4.3L23.3,74.8c-0.6-0.6-1-1.5-1-2.4s0.4-1.8,1-2.4l1-1    c1.3-1.3,3.5-1.3,4.8,0l17.6,17.6c1.5,1.5,3.4,2.3,5.5,2.3s4-0.8,5.5-2.3l21-21c3-3,3-7.9,0-11L65.9,41.8    c-0.2-0.2-0.4-0.6-0.4-0.9s0.1-0.6,0.4-0.9l15.3-15.3c0.5-0.5,1.3-0.5,1.8,0l13.4,13.4c10.7,10.7,10.7,28,0,38.6l-25.1,25.1    C68.5,104.7,64.8,106.2,60.8,106.2z M26.7,70.5c-0.2,0-0.5,0.1-0.6,0.3l-1,1c-0.2,0.2-0.3,0.4-0.3,0.6s0.1,0.5,0.3,0.6l27.1,27.1    c2.3,2.3,5.4,3.6,8.7,3.6s6.3-1.3,8.7-3.6L94.6,75c9.7-9.7,9.7-25.4,0-35.1L82.1,27.4L68.6,40.9l11.8,11.8c4,4,4,10.5,0,14.5    l-21,21c-1.9,1.9-4.5,3-7.2,3s-5.3-1.1-7.2-3L27.3,70.7C27.2,70.6,26.9,70.5,26.7,70.5z" fill="#502D4B"/></g><g><path d="M98,4.7l-1.3,1.3c-0.5,0.5-0.5,1.4,0,1.9l0,0c0.5,0.5,0.5,1.4,0,1.9L44.2,62.3c-0.5,0.5-0.5,1.4,0,1.9    l5.7,5.7c0.5,0.5,1.4,0.5,1.9,0l52.5-52.5c0.5-0.5,1.4-0.5,1.9,0v0c0.5,0.5,1.4,0.5,1.9,0l1.3-1.3c0.5-0.5,0.5-1.4,0-1.9l-9.5-9.5    C99.4,4.1,98.5,4.1,98,4.7z" fill="#F0F1EE"/></g><path d="M108.2,17.4l1.3-1.3c0.5-0.5,0.5-1.4,0-1.9l-9.5-9.5c-0.5-0.5-1.4-0.5-1.9,0l-1.3,1.3   c-0.5,0.5-0.5,1.4,0,1.9s0.5,1.4,0,1.9l-1.2,1.2l7.6,7.6l1.2-1.2c0.5-0.5,1.4-0.5,1.9,0h0C106.8,17.9,107.6,17.9,108.2,17.4z" fill="#502D4B" opacity="0.2"/><g><path d="M50.8,71.6c-0.7,0-1.3-0.3-1.8-0.8l-5.7-5.7c-1-1-1-2.7,0-3.7L95.8,8.9c0,0,0-0.1,0-0.1c-1-1-1-2.7,0-3.7    l1.3-1.3c1-1,2.7-1,3.7,0l9.5,9.5c1,1,1,2.7,0,3.7l-1.3,1.3c-1,1-2.7,1-3.7,0h-0.1L52.7,70.8C52.2,71.3,51.5,71.6,50.8,71.6z     M99,5.5c0,0-0.1,0-0.1,0l-1.3,1.3c0,0,0,0.1,0,0.1c1,1,1,2.7,0,3.7L45.1,63.2c0,0,0,0.1,0,0.1l5.8,5.8c0,0,0.1,0,0.1,0l52.5-52.5    c1-1,2.7-1,3.7,0c0,0,0.1,0,0.1,0l1.3-1.3c0,0,0-0.1,0-0.1L99,5.5z" fill="#502D4B"/></g><g><path d="M98.3,25.3l-9.5-9.5c-0.5-0.5-1.4-0.5-1.9,0L60.1,42.5c-0.5,0.5-1.4,0.5-1.9,0h0c-0.5-0.5-1.4-0.5-1.9,0    l-1.9,1.9c-0.5,0.5-0.5,1.4,0,1.9l13.4,13.4c0.5,0.5,1.4,0.5,1.9,0l1.9-1.9c0.5-0.5,0.5-1.4,0-1.9v0c-0.5-0.5-0.5-1.4,0-1.9    l1.3-1.3c0.5-0.5,1.4-0.5,1.9,0l0.4,0.4c0.5,0.5,1.4,0.5,1.9,0l17.2-17.2c0.5-0.5,0.5-1.4,0-1.9l-0.4-0.4c-0.5-0.5-0.5-1.4,0-1.9    l4.5-4.5C98.8,26.7,98.8,25.9,98.3,25.3z" fill="#898288"/></g><path d="M58.2,42.5c-0.5-0.5-1.4-0.5-1.9,0l-1.9,1.9c-0.5,0.5-0.5,1.4,0,1.9l13.4,13.4   c0.5,0.5,1.4,0.5,1.9,0l1.9-1.9c0.5-0.5,0.5-1.4,0-1.9s-0.5-1.4,0-1.9l1.2-1.2L61.3,41.4l-1.2,1.2C59.6,43.1,58.7,43.1,58.2,42.5z" fill="#502D4B" opacity="0.2"/><g><path d="M68.7,61.4c-0.7,0-1.3-0.3-1.8-0.8L53.5,47.2c-0.5-0.5-0.8-1.1-0.8-1.8c0-0.7,0.3-1.3,0.8-1.8l1.9-1.9    c1-1,2.7-1,3.7,0h0.1L86,14.9c1-1,2.7-1,3.7,0l9.5,9.5c0.5,0.5,0.8,1.1,0.8,1.8c0,0.7-0.3,1.3-0.8,1.8l-4.5,4.5c0,0,0,0.1,0,0.1    l0.4,0.4c1,1,1,2.7,0,3.7L77.9,54c-1,1-2.7,1-3.7,0l-0.4-0.4l-1-0.9l0.9,0.9l-1.3,1.3c0,0,0,0.1,0,0.1c0.5,0.5,0.8,1.1,0.8,1.8    c0,0.7-0.3,1.3-0.8,1.8l-1.9,1.9C70.1,61.1,69.4,61.4,68.7,61.4z M56.3,42.5l0.9,0.9l-1.9,1.9c0,0,0,0.1,0,0.1l13.4,13.4    c0,0,0.1,0,0.1,0l1.9-1.9c0,0,0-0.1,0-0.1c-0.5-0.5-0.8-1.1-0.8-1.8c0-0.7,0.3-1.3,0.8-1.8l1.3-1.3c1-1,2.7-1,3.7,0l0.4,0.4h0.1    L93.3,35c0,0,0-0.1,0-0.1L93,34.5c-1-1-1-2.7,0-3.7l4.5-4.5c0,0,0-0.1,0-0.1l-9.5-9.5h-0.1L61,43.4c-1,1-2.7,1-3.7,0L56.3,42.5z" fill="#502D4B"/></g><g><path d="M46.6,84.8c-0.3,0-0.6-0.1-0.9-0.4l-16-16c-0.5-0.5-0.5-1.3,0-1.8s1.3-0.5,1.8,0l16,16    c0.5,0.5,0.5,1.3,0,1.8C47.2,84.7,46.9,84.8,46.6,84.8z" fill="#DEF0F0"/></g><path d="M61.9,89.5c-5.5,0-11.1,3.3-13.2,8.9l2.6,2.6c5.3,5.3,13.8,5.3,19.1,0l3.9-3.9   C71.9,92.4,67.2,89.5,61.9,89.5z" fill="#502D4B" opacity="0.2"/><g><path d="M51,121.5v-18c0-11.8,16.2-15,20.7-4.1l9.1,22.1H51z" fill="#898288"/></g><g><path d="M80.9,122.8c-0.5,0-1-0.3-1.2-0.8l-9.1-22.1c-2.2-5.3-7.1-6.4-10.7-5.7c-3.5,0.7-7.7,3.6-7.7,9.3v18    c0,0.7-0.6,1.2-1.2,1.2s-1.2-0.6-1.2-1.2v-18c0-6.8,4.9-10.8,9.7-11.8c4.8-1,10.9,0.9,13.5,7.2l9.1,22.1c0.3,0.6,0,1.4-0.7,1.6    C81.2,122.8,81,122.8,80.9,122.8z" fill="#502D4B"/></g><g><path d="M106.3,18.6c-0.3,0-0.6-0.1-0.9-0.4l-9.5-9.5c-0.5-0.5-0.5-1.3,0-1.8s1.3-0.5,1.8,0l9.5,9.5    c0.5,0.5,0.5,1.3,0,1.8C106.9,18.5,106.6,18.6,106.3,18.6z" fill="#502D4B"/></g><g><path d="M71.6,57.1c-0.3,0-0.6-0.1-0.9-0.4L57.3,43.4c-0.5-0.5-0.5-1.3,0-1.8s1.3-0.5,1.8,0L72.5,55    c0.5,0.5,0.5,1.3,0,1.8C72.2,57,71.9,57.1,71.6,57.1z" fill="#502D4B"/></g><g><path d="M52.4,64.9c-0.3,0-0.6-0.1-0.9-0.4l-4.8-4.8c-0.5-0.5-0.5-1.3,0-1.8c0.5-0.5,1.3-0.5,1.8,0l4.8,4.8    c0.5,0.5,0.5,1.3,0,1.8C53,64.8,52.7,64.9,52.4,64.9z" fill="#502D4B"/></g><g><circle cx="61.8" cy="104" fill="#61BDA7" r="5.4"/></g><path d="M85.6,54.8c-5.7,0-10.3-4.6-10.3-10.3s4.6-10.3,10.3-10.3s10.3,4.6,10.3,10.3   S91.2,54.8,85.6,54.8z" fill="#502D4B" opacity="0.2"/><g><circle cx="85.6" cy="44.6" fill="#61BDA7" r="7"/></g><g><path d="M85.6,52.9c-4.6,0-8.3-3.7-8.3-8.3s3.7-8.3,8.3-8.3s8.3,3.7,8.3,8.3S90.1,52.9,85.6,52.9z M85.6,38.8    c-3.2,0-5.8,2.6-5.8,5.8s2.6,5.8,5.8,5.8c3.2,0,5.8-2.6,5.8-5.8S88.7,38.8,85.6,38.8z" fill="#502D4B"/></g><g><path d="M61.8,110.6c-3.7,0-6.7-3-6.7-6.7s3-6.7,6.7-6.7c3.7,0,6.7,3,6.7,6.7S65.5,110.6,61.8,110.6z M61.8,99.8    c-2.3,0-4.2,1.9-4.2,4.2s1.9,4.2,4.2,4.2c2.3,0,4.2-1.9,4.2-4.2S64.1,99.8,61.8,99.8z" fill="#502D4B"/></g><g><path d="M41.4,100.3l-20.2-20c-0.8-0.8-2.1-0.8-2.8,0l-0.2,0.2c-0.8,0.8-0.8,2.1,0,2.8l20.2,20    c0.8,0.8,2.1,0.8,2.8,0l0.2-0.2C42.2,102.3,42.2,101,41.4,100.3z" fill="#F9E373"/></g><g><path d="M39.8,105.2L39.8,105.2c-0.9,0-1.7-0.3-2.3-0.9l-20.2-20c-1.3-1.3-1.3-3.3,0-4.6l0.2-0.2    c1.2-1.2,3.4-1.2,4.6,0l20.2,20c0.6,0.6,1,1.4,1,2.3c0,0.9-0.3,1.7-0.9,2.3l-0.2,0.2C41.5,104.8,40.6,105.2,39.8,105.2z     M19.8,80.9c-0.2,0-0.4,0.1-0.5,0.2l-0.2,0.2c-0.3,0.3-0.3,0.8,0,1.1l20.2,20c0.1,0.1,0.3,0.2,0.5,0.2l0,0c0.2,0,0.4-0.1,0.5-0.2    l0.2-0.2c0.1-0.1,0.2-0.3,0.2-0.5s-0.1-0.4-0.2-0.5l-20.2-20C20.2,81,20,80.9,19.8,80.9z" fill="#502D4B"/></g><g><path d="M50,110.6H35.1c-3.6,0-6.5-2.9-6.5-6.5v-9.3c0-0.7,0.6-1.2,1.2-1.2s1.2,0.6,1.2,1.2v9.3c0,2.2,1.8,4,4,4    H50c0.7,0,1.2,0.6,1.2,1.2S50.7,110.6,50,110.6z" fill="#502D4B"/></g><g><path d="M108.4,123.7H20.6c-1.1,0-2-0.9-2-2v-3.6c0-1.1,0.9-2,2-2h87.8c1.1,0,2,0.9,2,2v3.6    C110.4,122.8,109.5,123.7,108.4,123.7z" fill="#898288"/></g><g><path d="M108.4,125H20.6c-1.8,0-3.2-1.5-3.2-3.2v-3.6c0-1.8,1.5-3.2,3.2-3.2h87.8c1.8,0,3.2,1.5,3.2,3.2v3.6    C111.6,123.5,110.2,125,108.4,125z M20.6,117.4c-0.4,0-0.8,0.3-0.8,0.8v3.6c0,0.4,0.3,0.8,0.8,0.8h87.8c0.4,0,0.8-0.3,0.8-0.8    v-3.6c0-0.4-0.3-0.8-0.8-0.8H20.6z" fill="#502D4B"/></g><g><circle cx="85.6" cy="44.6" fill="#502D4B" r="1.2"/></g><g><circle cx="61.8" cy="104" fill="#502D4B" r="1.2"/></g></g></svg>