<svg width="66" height="102" viewBox="0 0 66 102" fill="none" xmlns="http://www.w3.org/2000/svg">
<path d="M27 102V90H15V78H27V65.4C19.1 64 12.624 60.224 7.572 54.072C2.52 47.92 -0.00400288 40.796 -2.88256e-06 32.7C-2.88256e-06 23.6 3.226 15.876 9.678 9.528C16.13 3.18 23.904 0.004 33 0C42.1 0 49.876 3.176 56.328 9.528C62.78 15.88 66.004 23.604 66 32.7C66 40.8 63.474 47.926 58.422 54.078C53.37 60.23 46.896 64.004 39 65.4V78H51V90H39V102H27ZM33 54C38.8 54 43.75 51.95 47.85 47.85C51.95 43.75 54 38.8 54 33C54 27.2 51.95 22.25 47.85 18.15C43.75 14.05 38.8 12 33 12C27.2 12 22.25 14.05 18.15 18.15C14.05 22.25 12 27.2 12 33C12 38.8 14.05 43.75 18.15 47.85C22.25 51.95 27.2 54 33 54Z" fill="white"/>
</svg>
