<svg width="96" height="96" viewBox="0 0 96 96" fill="none" xmlns="http://www.w3.org/2000/svg">
<path d="M96 0V36H84V20.55L60.15 44.25C62.05 47.05 63.5 50.026 64.5 53.178C65.5 56.33 66 59.604 66 63C66 72.2 62.8 80 56.4 86.4C50 92.8 42.2 96 33 96C23.8 96 16 92.8 9.6 86.4C3.2 80 0 72.2 0 63C0 53.8 3.2 46 9.6 39.6C16 33.2 23.8 30 33 30C36.3 30 39.55 30.474 42.75 31.422C45.95 32.37 48.9 33.846 51.6 35.85L75.45 12H60V0H96ZM33 42C27.2 42 22.25 44.05 18.15 48.15C14.05 52.25 12 57.2 12 63C12 68.8 14.05 73.75 18.15 77.85C22.25 81.95 27.2 84 33 84C38.8 84 43.75 81.95 47.85 77.85C51.95 73.75 54 68.8 54 63C54 57.2 51.95 52.25 47.85 48.15C43.75 44.05 38.8 42 33 42Z" fill="white"/>
</svg>
