<?xml version="1.0" ?><svg style="enable-background:new 0 0 64 64;" version="1.1" viewBox="0 0 64 64" xml:space="preserve" xmlns="http://www.w3.org/2000/svg" xmlns:xlink="http://www.w3.org/1999/xlink"><style type="text/css">
	.st0{fill:#75C6A8;}
	.st1{fill:#57B5B5;}
	.st2{fill:#263047;}
	.st3{fill:#DB7158;}
	.st4{fill:none;stroke:#263047;stroke-width:0.5;stroke-linecap:round;stroke-miterlimit:10;}
	.st5{fill:none;stroke:#EA8B78;stroke-width:2;stroke-linecap:round;stroke-miterlimit:10;}
	.st6{fill:#E89715;}
	.st7{fill:none;stroke:#263047;stroke-linecap:round;stroke-miterlimit:10;}
	.st8{fill:none;stroke:#263047;stroke-width:0.5;stroke-linecap:round;stroke-linejoin:round;stroke-miterlimit:10;}
	.st9{fill:#456BA8;}
	.st10{fill:#9EC6B8;}
	.st11{fill:#C14F46;}
	.st12{fill:#BFD8D0;}
	.st13{fill:#E57417;}
	.st14{fill:none;stroke:#9EC6B8;stroke-width:0.75;stroke-linecap:round;stroke-linejoin:round;stroke-miterlimit:10;}
	.st15{fill:#FFFFFF;}
	.st16{fill:#D8EAE3;}
	.st17{fill:none;stroke:#DB7158;stroke-linecap:round;stroke-miterlimit:10;}
	.st18{fill:none;stroke:#BFD8D0;stroke-width:0.5;stroke-linecap:round;stroke-miterlimit:10;}
	.st19{fill:none;stroke:#263047;stroke-width:0.5;stroke-linecap:round;stroke-miterlimit:10;stroke-dasharray:1.0458,1.0458;}
	.st20{fill:#75C6A8;stroke:#75C6A8;stroke-width:0.25;stroke-linejoin:round;stroke-miterlimit:10;}
	.st21{fill:#EF8873;}
	.st22{fill:none;stroke:#263047;stroke-width:0.5;stroke-miterlimit:10;}
	.st23{fill:none;stroke:#263047;stroke-width:0.5;stroke-linecap:round;stroke-miterlimit:10;stroke-dasharray:1.8125,1.8125;}
	.st24{fill:none;stroke:#263047;stroke-linecap:round;stroke-miterlimit:10;stroke-dasharray:1.912,1.912;}
	.st25{fill:none;}
	.st26{fill:none;stroke:#EA8B78;stroke-linecap:round;stroke-miterlimit:10;}
	.st27{fill:none;stroke:#263047;stroke-width:3;stroke-miterlimit:10;}
	.st28{fill:none;stroke:#BFD8D0;stroke-miterlimit:10;}
	.st29{fill:none;stroke:#BFD8D0;stroke-width:0.5;stroke-miterlimit:10;}
	.st30{fill:none;stroke:#9EC6B8;stroke-width:0.5;stroke-miterlimit:10;}
	.st31{fill:none;stroke:#75C6A8;stroke-width:0.5;stroke-miterlimit:10;}
	.st32{fill:none;stroke:#F9F9F9;stroke-width:0.5;stroke-linecap:round;stroke-linejoin:round;stroke-miterlimit:10;}
	.st33{fill:none;stroke:#9EC6B8;stroke-width:0.5;stroke-linecap:round;stroke-linejoin:round;stroke-miterlimit:10;}
	.st34{fill:#EA8B78;}
	.st35{fill:none;stroke:#EA8B78;stroke-width:0.75;stroke-linecap:round;stroke-miterlimit:10;}
</style><g id="Layer_1"/><g id="artworks"><path class="st0" d="M35.1,15.9v-1.6H9.4v1.6c0,1.1-0.5,2.2-1.4,2.9c-1.3,0.9-2.1,2.4-2.1,4.1v18.3c0,2.8,2.3,5,5,5h22.6   c2.8,0,5-2.3,5-5V22.9c0-1.7-0.8-3.1-2.1-4.1C35.5,18.1,35.1,17,35.1,15.9z"/><path class="st1" d="M9.4,14.3v1.6c0,0.4-0.1,0.8-0.2,1.2h26.1c-0.1-0.4-0.2-0.8-0.2-1.2v-1.6H9.4z"/><path class="st1" d="M37.3,44.4c-0.9-1.1-2.3-1.8-3.8-1.8H10.9c-1.5,0-2.9,0.7-3.8,1.8c0.9,1.1,2.3,1.8,3.8,1.8h22.6   C35,46.2,36.4,45.5,37.3,44.4z"/><path class="st4" d="M8,18.8c-1.3,0.9-2.1,2.4-2.1,4.1v18.3c0,2.8,2.3,5,5,5h22.6c2.8,0,5-2.3,5-5V22.9c0-1.7-0.8-3.1-2.1-4.1   c-0.9-0.7-1.4-1.8-1.4-2.9v-1.6H9.4"/><path class="st12" d="M34.7,14.9H9.7c-1.1,0-2-0.9-2-2V10c0-1.1,0.9-2,2-2h25.1c1.1,0,2,0.9,2,2v2.9C36.8,14,35.9,14.9,34.7,14.9z"/><path class="st10" d="M7.7,13.2c0.1,1,1,1.8,2,1.8h25.1c1,0,1.9-0.8,2-1.8"/><path class="st4" d="M36.8,10v2.9c0,1.1-0.9,2-2,2H9.7"/><path class="st2" d="M38.5,38.2H17.1c-1,0-1.7-0.8-1.7-1.7V24c0-1,0.8-1.7,1.7-1.7h21.4V38.2z"/><g><g><circle class="st0" cx="23.5" cy="30.3" r="2.6"/><g><path class="st0" d="M27.1,27.8c0.2-0.2,0.1-0.6-0.2-0.9c-0.3-0.3-0.7-0.4-0.9-0.2c0,0-0.1,0.1-0.1,0.2      c-0.1,0.4-0.3,0.8-0.6,1.1l-0.7,0.7l0.6,0.6l0.7-0.7c0.3-0.3,0.7-0.5,1.1-0.6C27,27.9,27,27.9,27.1,27.8z"/><path class="st0" d="M20,32.7c-0.2,0.2-0.1,0.6,0.2,0.9c0.3,0.3,0.7,0.4,0.9,0.2c0,0,0.1-0.1,0.1-0.2c0.1-0.4,0.3-0.8,0.6-1.1      l0.7-0.7l-0.6-0.6L21.2,32c-0.3,0.3-0.7,0.5-1.1,0.6C20.1,32.6,20,32.6,20,32.7z"/></g><g><path class="st0" d="M25.1,26.6c0.1-0.2-0.2-0.4-0.5-0.5c-0.3-0.1-0.6,0-0.6,0.2c0,0,0,0.1,0,0.1c0.1,0.3,0.1,0.6,0,0.9L23.8,28      l0.6,0.2l0.2-0.7c0.1-0.3,0.2-0.6,0.4-0.8C25.1,26.7,25.1,26.6,25.1,26.6z"/><path class="st0" d="M21.9,33.9c-0.1,0.2,0.2,0.4,0.5,0.5c0.3,0.1,0.6,0,0.6-0.2c0,0,0-0.1,0-0.1c-0.1-0.3-0.1-0.6,0-0.9      l0.2-0.7l-0.6-0.2L22.5,33c-0.1,0.3-0.2,0.6-0.4,0.8C22,33.8,22,33.9,21.9,33.9z"/></g><g><path class="st0" d="M21.1,27.1c-0.1-0.1-0.4-0.1-0.7,0.2c-0.2,0.2-0.3,0.5-0.2,0.7c0,0,0.1,0.1,0.1,0.1      c0.3,0.1,0.5,0.2,0.8,0.4l0.5,0.5l0.4-0.4l-0.5-0.5c-0.2-0.2-0.4-0.5-0.4-0.8C21.2,27.1,21.2,27.1,21.1,27.1z"/><path class="st0" d="M25.9,33.5c0.1,0.1,0.4,0.1,0.7-0.2c0.2-0.2,0.3-0.5,0.2-0.7c0,0-0.1-0.1-0.1-0.1c-0.3-0.1-0.5-0.2-0.8-0.4      l-0.5-0.5l-0.4,0.4l0.5,0.5c0.2,0.2,0.4,0.5,0.4,0.8C25.9,33.4,25.9,33.4,25.9,33.5z"/></g><g><path class="st0" d="M19.6,30.7c-0.2,0.1-0.3,0.3-0.2,0.6c0.1,0.3,0.3,0.5,0.5,0.5c0,0,0.1,0,0.1-0.1c0.2-0.2,0.5-0.4,0.8-0.4      l0.7-0.2l-0.2-0.6l-0.7,0.2c-0.3,0.1-0.6,0.1-0.9,0C19.7,30.7,19.6,30.7,19.6,30.7z"/><path class="st0" d="M27.5,29.8c0.2-0.1,0.3-0.3,0.2-0.6c-0.1-0.3-0.3-0.5-0.5-0.5c0,0-0.1,0-0.1,0.1c-0.2,0.2-0.5,0.4-0.8,0.4      l-0.7,0.2l0.2,0.6l0.7-0.2c0.3-0.1,0.6-0.1,0.9,0C27.4,29.8,27.4,29.8,27.5,29.8z"/></g><g><path class="st0" d="M23.2,26c-0.1-0.3-0.5-0.4-0.9-0.3c-0.4,0.1-0.7,0.4-0.6,0.7c0,0.1,0.1,0.1,0.1,0.2      c0.3,0.3,0.5,0.7,0.6,1.1l0.3,1l0.8-0.2l-0.3-1c-0.1-0.4-0.1-0.8,0-1.2C23.2,26.1,23.2,26,23.2,26z"/><path class="st0" d="M23.8,34.5c0.1,0.3,0.5,0.4,0.9,0.3c0.4-0.1,0.7-0.4,0.6-0.7c0-0.1-0.1-0.1-0.1-0.2      c-0.3-0.3-0.5-0.7-0.6-1.1l-0.3-1l-0.8,0.2l0.3,1c0.1,0.4,0.1,0.8,0,1.2C23.8,34.4,23.8,34.5,23.8,34.5z"/></g><g><path class="st0" d="M19.7,28.4c-0.3-0.1-0.6,0.2-0.7,0.6c-0.1,0.4,0,0.8,0.3,0.9c0.1,0,0.1,0,0.2,0c0.4-0.1,0.8-0.1,1.2,0      l1,0.3l0.2-0.8l-1-0.3c-0.4-0.1-0.8-0.3-1.1-0.6C19.8,28.4,19.7,28.4,19.7,28.4z"/><path class="st0" d="M27.4,32.1c0.3,0.1,0.6-0.2,0.7-0.6c0.1-0.4,0-0.8-0.3-0.9c-0.1,0-0.1,0-0.2,0c-0.4,0.1-0.8,0.1-1.2,0      l-1-0.3l-0.2,0.8l1,0.3c0.4,0.1,0.8,0.3,1.1,0.6C27.3,32.1,27.3,32.1,27.4,32.1z"/></g></g></g><g><line class="st30" x1="30.4" x2="36" y1="27.1" y2="27.1"/><line class="st30" x1="30.4" x2="36" y1="29.2" y2="29.2"/><line class="st30" x1="30.4" x2="36" y1="31.3" y2="31.3"/><line class="st30" x1="30.4" x2="35" y1="33.5" y2="33.5"/></g><g><circle class="st6" cx="33.9" cy="48.4" r="4.1"/><path class="st13" d="M33.9,44.4c2.2,0,4.1,1.8,4.1,4.1s-1.8,4.1-4.1,4.1"/><path class="st4" d="M38,48.4c0,2.2-1.8,4.1-4.1,4.1s-4.1-1.8-4.1-4.1s1.8-4.1,4.1-4.1"/><path class="st30" d="M33.9,44.4c2.2,0,4.1,1.8,4.1,4.1"/><line class="st4" x1="33.9" x2="33.9" y1="46.6" y2="52.5"/></g><g><circle class="st3" cx="23.6" cy="44" r="4.1"/><path class="st11" d="M19.5,44c0-2.2,1.8-4.1,4.1-4.1s4.1,1.8,4.1,4.1"/><path class="st4" d="M23.6,39.9c2.2,0,4.1,1.8,4.1,4.1s-1.8,4.1-4.1,4.1s-4.1-1.8-4.1-4.1"/><path class="st30" d="M19.5,44c0-2.2,1.8-4.1,4.1-4.1"/><line class="st4" x1="21.8" x2="27.6" y1="44" y2="44"/></g><g><circle class="st10" cx="46.4" cy="30.5" r="4.1"/><path class="st12" d="M42.3,30.5c0-2.2,1.8-4.1,4.1-4.1s4.1,1.8,4.1,4.1"/><path class="st4" d="M46.4,26.5c2.2,0,4.1,1.8,4.1,4.1s-1.8,4.1-4.1,4.1s-4.1-1.8-4.1-4.1"/><path class="st30" d="M42.3,30.5c0-2.2,1.8-4.1,4.1-4.1"/><line class="st4" x1="44.5" x2="50.4" y1="30.5" y2="30.5"/></g><g><circle class="st10" cx="16.8" cy="54.2" r="4.1"/><path class="st12" d="M13.9,57c-1.6-1.6-1.6-4.2,0-5.7s4.2-1.6,5.7,0"/><path class="st4" d="M13.9,51.3c1.6-1.6,4.2-1.6,5.7,0s1.6,4.2,0,5.7c-1.6,1.6-4.2,1.6-5.7,0"/><path class="st30" d="M13.9,57c-1.6-1.6-1.6-4.2,0-5.7"/><line class="st4" x1="15.5" x2="19.7" y1="55.4" y2="51.3"/></g><g><path class="st12" d="M51.5,48.8L51.5,48.8c-1.2,1.2-3.2,1.2-4.4,0l-3.9-3.9c-1.2-1.2-1.2-3.2,0-4.4l0,0c1.2-1.2,3.2-1.2,4.4,0    l3.9,3.9C52.7,45.6,52.7,47.6,51.5,48.8z"/><path class="st0" d="M45.1,46.9l2,2c1.2,1.2,3.2,1.2,4.4,0c1.2-1.2,1.2-3.2,0-4.4l-2-2L45.1,46.9z"/><path class="st4" d="M43.1,40.5L43.1,40.5c1.2-1.2,3.2-1.2,4.4,0l3.9,3.9c1.2,1.2,1.2,3.2,0,4.4l0,0c-1.2,1.2-3.2,1.2-4.4,0    l-3.9-3.9"/><path class="st30" d="M43.1,44.9c-1.2-1.2-1.2-3.2,0-4.4"/></g><g><path class="st12" d="M49.6,57.7L49.6,57.7c0.5,1.7,2.2,2.6,3.9,2.1l5.3-1.6c1.7-0.5,2.6-2.2,2.1-3.9v0c-0.5-1.7-2.2-2.6-3.9-2.1    l-5.3,1.6C50,54.3,49.1,56,49.6,57.7z"/><path class="st11" d="M56.1,59l-2.7,0.8c-1.7,0.5-3.4-0.5-3.9-2.1c-0.5-1.7,0.5-3.4,2.1-3.9l2.7-0.8L56.1,59z"/><path class="st4" d="M60.9,54.3L60.9,54.3c-0.5-1.7-2.2-2.6-3.9-2.1l-5.3,1.6c-1.7,0.5-2.6,2.2-2.1,3.9l0,0    c0.5,1.7,2.2,2.6,3.9,2.1l5.3-1.6"/><path class="st30" d="M58.8,58.2c1.7-0.5,2.6-2.2,2.1-3.9"/></g><g><path class="st12" d="M32.6,57.9L32.6,57.9c0,1.7,1.4,3.1,3.1,3.1h5.5c1.7,0,3.1-1.4,3.1-3.1v0c0-1.7-1.4-3.1-3.1-3.1h-5.5    C34,54.7,32.6,56.1,32.6,57.9z"/><path class="st6" d="M38.5,61h-2.8c-1.7,0-3.1-1.4-3.1-3.1s1.4-3.1,3.1-3.1h2.8V61z"/><path class="st4" d="M44.4,57.9L44.4,57.9c0-1.7-1.4-3.1-3.1-3.1h-5.5c-1.7,0-3.1,1.4-3.1,3.1v0c0,1.7,1.4,3.1,3.1,3.1h5.5"/><path class="st30" d="M41.3,61c1.7,0,3.1-1.4,3.1-3.1"/></g></g></svg>