<?xml version="1.0" ?><svg id="Icons" viewBox="0 0 60 60" xmlns="http://www.w3.org/2000/svg"><defs><style>.cls-1{fill:#d6dbe3;}.cls-2{fill:#b9bfcc;}.cls-3{fill:#ccd0da;}.cls-4{fill:#31b5a5;}.cls-5{fill:#262626;}</style></defs><path class="cls-1" d="M9.173,59.471a.5.5,0,0,1-.277-.917L19.04,51.841,5.94,59.4a.5.5,0,0,1-.523-.851l11.927-7.781L2.956,59.076a.5.5,0,0,1-.518-.855l9.725-6.16L1.813,58.035a.5.5,0,0,1-.511-.858l.35-.216-.237.137A.5.5,0,0,1,.9,56.239l.516-.317L1.28,56a.5.5,0,0,1-.516-.856l9.8-6.167L1.28,54.337a.5.5,0,0,1-.517-.855l11.5-7.29L1.28,52.533a.5.5,0,0,1-.518-.854l12.621-8.041L1.28,50.625a.5.5,0,0,1-.516-.855L11.483,43l-10.2,5.89a.5.5,0,0,1-.511-.859l1.316-.809-.8.464a.5.5,0,0,1-.521-.853l15.03-9.7L1.28,45.5a.5.5,0,0,1-.521-.853l15.12-9.767L1.28,43.313a.5.5,0,0,1-.521-.853L15.8,32.746,1.28,41.131a.5.5,0,0,1-.511-.859l.462-.284a.5.5,0,0,1-.472-.878L16.4,28.976,1.28,37.7a.5.5,0,0,1-.518-.854L13.5,28.727,1.28,35.782a.5.5,0,0,1-.517-.855L11.572,28.1,1.279,34.038a.5.5,0,0,1-.521-.852L16.13,23.24,1.279,31.813a.5.5,0,0,1-.513-.857L6.44,27.43,1.279,30.41a.5.5,0,0,1-.518-.855L12.839,21.88,1.279,28.554A.5.5,0,0,1,.765,27.7l6.786-4.23L1.279,27.088a.5.5,0,0,1-.516-.856l10.061-6.339L1.279,25.4a.5.5,0,0,1-.511-.859l.565-.347-.054.031a.5.5,0,0,1-.518-.854L13.4,15.319,1.279,22.314a.5.5,0,0,1-.514-.857l6.775-4.23L1.279,20.842a.5.5,0,0,1-.518-.855L11.744,12.98,1.279,19.022a.5.5,0,0,1-.526-.849L13.8,9.521,1.279,16.749A.5.5,0,0,1,.754,15.9L10.16,9.675,1.279,14.8a.5.5,0,0,1-.533-.846L9.564,7.911,1.279,12.694a.5.5,0,0,1-.536-.843L7.368,7.216,1.279,10.731A.5.5,0,0,1,.726,9.9L6.677,5.362l-5.4,3.116A.5.5,0,0,1,.711,7.66L4.6,4.442,1.279,6.36a.5.5,0,0,1-.6-.785L2.9,3.323,1.32,4.236a.5.5,0,0,1-.613-.777l.745-.789a.492.492,0,0,1-.2-.195.5.5,0,0,1,.183-.683L3.364.675a.5.5,0,0,1,.614.776l-.2.21L5.623.6a.5.5,0,0,1,.606.784L4,3.634,9.261.6a.5.5,0,0,1,.568.818L5.938,4.634,12.931.6a.5.5,0,0,1,.553.83L7.535,5.965,16.833.6a.5.5,0,0,1,.537.842L10.743,6.075,20.232.6a.5.5,0,0,1,.534.845L11.948,7.488,23.885.6a.5.5,0,0,1,.525.85l-9.4,6.22L27.255.6a.5.5,0,0,1,.526.85L14.734,10.1,30.821.812a.5.5,0,0,1,.519.854L20.356,8.672l11.771-6.8a.5.5,0,0,1,.515.857L25.868,6.963l6.75-3.9a.5.5,0,0,1,.519.854L20.5,11.979,32.72,4.921a.5.5,0,0,1,.511.86l-.565.347L32.72,6.1a.5.5,0,0,1,.516.856L23.182,13.288,32.72,7.781a.5.5,0,0,1,.514.858l-6.786,4.229L32.72,9.247a.5.5,0,0,1,.518.855L21.16,17.777,32.72,11.1a.5.5,0,0,1,.513.858L27.55,15.492l5.17-2.985a.5.5,0,0,1,.521.853L17.873,23.3,32.72,14.731a.5.5,0,0,1,.517.856l-10.8,6.827L32.72,16.476a.5.5,0,0,1,.518.854L20.5,25.448,32.72,18.4a.5.5,0,0,1,.521.853L17.6,29.385,32.72,20.656a.5.5,0,0,1,.511.86l-.465.285a.5.5,0,0,1,.475.877L18.2,32.39l14.52-8.384a.5.5,0,0,1,.521.853L18.112,34.632,32.721,26.2a.5.5,0,0,1,.521.853l-15.026,9.7,14.5-8.375a.5.5,0,0,1,.511.859l-1.329.817.818-.471a.5.5,0,0,1,.516.856L22.53,37.2l10.191-5.883a.5.5,0,0,1,.518.855L20.607,40.221l12.114-6.993a.5.5,0,0,1,.517.854l-11.5,7.29,10.985-6.341a.5.5,0,0,1,.516.856l-9.8,6.168L32.721,36.7a.5.5,0,0,1,.511.859l-.524.322.013-.007a.5.5,0,0,1,.511.859l-.456.28a.5.5,0,0,1,.462.884l-9.73,6.164,9.213-5.319a.5.5,0,0,1,.523.852L21.319,49.37l11.4-6.582a.5.5,0,0,1,.526.85L23.1,50.352,32.721,44.8a.5.5,0,0,1,.525.849L26.4,50.166l6.32-3.648a.5.5,0,0,1,.531.845l-6.4,4.349,5.868-3.388a.5.5,0,0,1,.544.837l-6.4,4.661,5.856-3.38a.5.5,0,0,1,.542.839L30.1,53.558l2.621-1.513a.5.5,0,0,1,.557.827l-2.635,2.053,2.078-1.2a.5.5,0,0,1,.615.774l-2.2,2.357,1.5-.867a.5.5,0,0,1,.5.865L28.724,59.4a.5.5,0,0,1-.616-.774l2.2-2.357L24.887,59.4a.5.5,0,0,1-.558-.827l2.638-2.054L21.975,59.4a.5.5,0,0,1-.542-.839l3.16-2.274L19.2,59.4a.5.5,0,0,1-.544-.837l6.4-4.66L15.53,59.4A.5.5,0,0,1,15,58.558l6.4-4.348-9,5.193a.5.5,0,0,1-.525-.849l6.852-4.523L9.423,59.4A.5.5,0,0,1,9.173,59.471Z"/><path class="cls-2" d="M9.337,13.38a.5.5,0,0,1-.358-.85L10.966,10.5l-3.3,1.908a.5.5,0,0,1-.595-.795l2.65-2.527L6.6,10.886a.5.5,0,0,1-.593-.8l2.2-2.078L6.335,9.091a.5.5,0,0,1-.62-.769L6.938,6.978a.5.5,0,0,1-.215-.932L9.032,4.712a.5.5,0,0,1,.62.77L8.617,6.619,11.413,5a.5.5,0,0,1,.593.8L9.8,7.88l3.033-1.752a.5.5,0,0,1,.595.8L10.782,9.449l2.835-1.636a.5.5,0,0,1,.608.782l-1.988,2.033,1.231-.71a.5.5,0,0,1,.5.866L9.587,13.313A.5.5,0,0,1,9.337,13.38Z"/><path class="cls-2" d="M24.436,13.4a.5.5,0,0,1-.374-.833l1.447-1.616L22.236,12.84a.5.5,0,0,1-.587-.8l2.161-1.971-2.791,1.612a.5.5,0,0,1-.565-.822L21.632,9.9l-1.169.675a.5.5,0,0,1-.577-.812l1.448-1.25-1,.577a.5.5,0,0,1-.62-.769l1.224-1.347a.5.5,0,0,1-.216-.932l2.309-1.334a.5.5,0,0,1,.62.77L22.614,6.624l2.8-1.619a.5.5,0,0,1,.577.812l-1.449,1.25,2.089-1.206a.5.5,0,0,1,.564.822l-1.177.954,1.288-.744a.5.5,0,0,1,.587.8l-2.161,1.97,1.981-1.144a.5.5,0,0,1,.623.767l-1.446,1.616.1-.056a.5.5,0,1,1,.5.866l-2.8,1.618A.5.5,0,0,1,24.436,13.4Z"/><path class="cls-2" d="M8.943,27.325a.5.5,0,0,1-.316-.887l.195-.16-.754.435A.5.5,0,0,1,7.5,25.9l1.3-1.08L7.1,25.793a.5.5,0,0,1-.564-.822l1.188-.962-1.209.7a.5.5,0,0,1-.6-.788l2.291-2.271L6.4,22.693a.5.5,0,0,1-.6-.788l.975-.968a.5.5,0,0,1-.048-.891l2.309-1.334a.5.5,0,0,1,.6.788l-.408.405,1.829-1.055a.5.5,0,0,1,.6.788l-2.291,2.27,3.352-1.935a.5.5,0,0,1,.564.822l-1.186.961,1.268-.732a.5.5,0,0,1,.571.817l-1.3,1.082,1.052-.608a.5.5,0,0,1,.566.821l-.467.381a.491.491,0,0,1,.453.25.5.5,0,0,1-.182.683L9.193,27.258A.5.5,0,0,1,8.943,27.325Z"/><path class="cls-2" d="M23.512,27.4a.5.5,0,0,1-.36-.847l1.9-1.968-3.284,1.9a.5.5,0,0,1-.6-.792L23.9,23.043l-3.278,1.892a.5.5,0,0,1-.608-.781l2.527-2.605-2.153,1.243a.5.5,0,0,1-.608-.783l1.037-1.057a.5.5,0,0,1-.089-.906l2.309-1.334a.5.5,0,0,1,.608.784l-.592.6,2.1-1.211a.5.5,0,0,1,.608.781l-2.527,2.605,3.642-2.1a.5.5,0,0,1,.6.792l-2.725,2.651,2.893-1.671a.5.5,0,0,1,.609.781l-1.9,1.968,1.033-.6a.5.5,0,1,1,.5.866l-4.115,2.376A.5.5,0,0,1,23.512,27.4Z"/><path class="cls-2" d="M9.725,41.433a.5.5,0,0,1-.371-.835l2.024-2.24-3.643,2.1a.5.5,0,0,1-.6-.788l2.823-2.8L6.571,38.827a.5.5,0,0,1-.6-.793l2.243-2.152L6.356,36.956a.5.5,0,0,1-.614-.775l1.138-1.21a.5.5,0,0,1-.157-.924l2.309-1.334a.5.5,0,0,1,.614.775l-.851.906,2.5-1.442a.5.5,0,0,1,.6.793L9.644,35.9l3.154-1.82a.5.5,0,0,1,.6.788l-2.822,2.8L13.63,35.9a.5.5,0,0,1,.621.768L12.227,38.91l1.039-.6a.5.5,0,0,1,.5.865L9.975,41.365A.493.493,0,0,1,9.725,41.433Z"/><path class="cls-2" d="M24.719,41.354a.5.5,0,0,1-.351-.856l.337-.332-1.728,1a.5.5,0,0,1-.6-.794l2.058-1.965-3.05,1.761a.5.5,0,0,1-.56-.825l.715-.563-.8.458a.5.5,0,0,1-.6-.794l2.467-2.356-2.341,1.351a.5.5,0,0,1-.632-.755L21.1,34.965a.5.5,0,0,1-.555-.236.5.5,0,0,1,.183-.682l2.309-1.334a.5.5,0,0,1,.632.755l-1.413,1.677,3.474-2.005a.5.5,0,0,1,.595.794l-2.465,2.355,3.212-1.854a.5.5,0,0,1,.56.825l-.716.563.641-.369a.5.5,0,0,1,.595.794l-2.056,1.964,1.5-.869a.5.5,0,0,1,.6.789l-.952.937a.5.5,0,0,1,.034.884l-2.309,1.334A.489.489,0,0,1,24.719,41.354Z"/><path class="cls-2" d="M10.719,55.354a.5.5,0,0,1-.349-.858l.251-.244-1.607.928a.5.5,0,0,1-.6-.791l2.153-2.1-3.2,1.847a.5.5,0,0,1-.578-.81l2.027-1.763-2.234,1.29a.5.5,0,0,1-.566-.819l1.035-.848-.748.432a.5.5,0,0,1-.641-.744L7.24,48.9l-.017.01a.5.5,0,1,1-.5-.865l2.309-1.334a.5.5,0,0,1,.641.744L8.1,49.434l3.785-2.185a.5.5,0,0,1,.566.819l-1.034.847,1.4-.811a.5.5,0,0,1,.579.81l-2.028,1.762,2.17-1.252a.5.5,0,0,1,.6.791L11.984,52.31l1.605-.926a.5.5,0,0,1,.6.791l-.926.9a.5.5,0,0,1,.2.194.5.5,0,0,1-.183.682l-2.309,1.334A.489.489,0,0,1,10.719,55.354Z"/><path class="cls-2" d="M23.943,55.462A.5.5,0,0,1,23.6,54.6l.979-.935-2.17,1.252a.5.5,0,0,1-.564-.821l.719-.583-1.161.67a.5.5,0,0,1-.586-.8l2.4-2.178-2.677,1.545a.5.5,0,0,1-.6-.794l2.189-2.095-1.76,1.016a.5.5,0,0,1-.61-.778l1.087-1.134a.492.492,0,0,1-.306-.234.5.5,0,0,1,.183-.682l2.309-1.334a.5.5,0,0,1,.611.778l-.729.761,2.306-1.331a.5.5,0,0,1,.6.794l-2.187,2.094,3.116-1.8a.5.5,0,0,1,.586.8l-2.4,2.178,2.628-1.516a.5.5,0,0,1,.564.821l-.718.582.289-.167a.5.5,0,0,1,.595.794l-1.026.979a.5.5,0,0,1,.569.232.5.5,0,0,1-.183.682l-3.458,2A.5.5,0,0,1,23.943,55.462Z"/><path class="cls-3" d="M40.562,59.471a.5.5,0,0,1-.283-.913l7.648-5.235L37.583,59.3a.5.5,0,0,1-.53-.847l10.081-6.826L35.316,58.444a.5.5,0,0,1-.517-.854l3.428-2.173-3.766,2.174a.5.5,0,0,1-.52-.854l5.979-3.819-6.148,3.549a.5.5,0,0,1-.521-.853L42.1,49.888l-8.743,5.047a.5.5,0,0,1-.525-.85L44.982,46.05l-11.7,6.756a.5.5,0,0,1-.521-.853l9.415-6.094L33.28,50.994a.5.5,0,0,1-.522-.852L42.386,43.9,33.28,49.156a.5.5,0,0,1-.516-.855l4-2.525L33.28,47.789a.5.5,0,0,1-.526-.85l11.727-7.778-11.2,6.467a.5.5,0,0,1-.526-.85l10.783-7.141L33.28,43.558a.5.5,0,0,1-.522-.853L40.015,38,33.28,41.889a.5.5,0,0,1-.523-.852l7.264-4.748L33.28,40.181a.5.5,0,0,1-.527-.849l8.173-5.453L33.28,38.293a.5.5,0,0,1-.519-.855l1.168-.745-.649.374a.5.5,0,0,1-.52-.853l1.35-.867-.83.478a.5.5,0,0,1-.525-.849l4.079-2.694L33.34,34.3a.5.5,0,0,1-.533-.845l6.452-4.424L33.6,32.3a.5.5,0,0,1-.523-.852l1.089-.71a.5.5,0,0,1-.477-.875l1.449-.946a.509.509,0,0,1-.491-.234A.5.5,0,0,1,34.8,28l4.976-3.278a.5.5,0,0,1-.023-.786l4.312-3.6-1.8,1.039a.5.5,0,0,1-.642-.745L43.1,18.771l-.824.475a.5.5,0,0,1-.731-.569l.257-.912a.492.492,0,0,1-.208-.2.5.5,0,0,1,.182-.683l.5-.29a.5.5,0,0,1,.732.569l-.17.6,2.044-1.18a.5.5,0,0,1,.641.745l-1.479,1.857,4.53-2.616a.5.5,0,0,1,.57.817l-4.311,3.6,4.88-2.818a.5.5,0,0,1,.525.851l-.728.479.2-.117a.5.5,0,0,1,.523.851l-.872.57.375-.216a.5.5,0,0,1,.523.852l-1.047.682.712-.411a.5.5,0,0,1,.533.846L44.017,26.98l6.753-3.9a.5.5,0,0,1,.525.85l-4.079,2.693,4.593-2.651a.5.5,0,0,1,.52.853l-1.338.86,1.816-1.048a.5.5,0,0,1,.519.854l-1.178.752,1.645-.95a.5.5,0,0,1,.527.85L46.15,31.6l9.02-5.208a.5.5,0,0,1,.523.851l-7.261,4.747L56.3,27.445a.5.5,0,0,1,.522.853L49.55,33.011l7.582-4.378a.5.5,0,0,1,.526.85L46.881,36.621l11.056-6.383a.5.5,0,0,1,.526.85L46.735,38.866l11.756-6.787a.5.5,0,0,1,.517.856L55,35.461l3.648-2.107a.5.5,0,0,1,.523.853l-9.628,6.242,9.175-5.3a.5.5,0,0,1,.521.853L49.825,42.1l8.895-5.135a.5.5,0,0,1,.525.849L47.1,45.85,58.72,39.14a.5.5,0,0,1,.521.852L50.38,45.725l8.34-4.815a.5.5,0,0,1,.519.854l-5.966,3.811,5.447-3.144a.5.5,0,0,1,.517.854l-3.43,2.175,2.913-1.682a.5.5,0,0,1,.53.847L49.17,51.451l9.55-5.513a.5.5,0,0,1,.532.844l-7.647,5.235,7.116-4.108a.5.5,0,0,1,.541.839l-6.5,4.645,5.955-3.438a.5.5,0,0,1,.559.825l-5.442,4.29,4.883-2.818a.5.5,0,0,1,.545.836l-1.089.8.542-.313a.5.5,0,0,1,.617.773l-2.286,2.47.785-.453a.5.5,0,1,1,.5.866l-3.646,2.105a.5.5,0,0,1-.617-.772l2.288-2.473L50.616,59.4a.5.5,0,0,1-.545-.836l1.088-.8L48.333,59.4a.5.5,0,0,1-.56-.825l5.441-4.288L44.354,59.4a.5.5,0,0,1-.541-.84l6.495-4.642-9.5,5.482A.5.5,0,0,1,40.562,59.471Z"/><path class="cls-4" d="M42.473,19.471a.5.5,0,0,1-.33-.876l2.965-2.606L40.361,18.73a.5.5,0,0,1-.551-.832l.552-.418-.083.048a.5.5,0,0,1-.573-.815l.542-.457a.5.5,0,0,1-.677-.65l.625-1.432a.5.5,0,0,1-.332-.926l1.128-.651a.5.5,0,0,1,.708.633l-.6,1.383L44.589,12.6a.5.5,0,0,1,.573.815l-.535.452,2.2-1.268a.5.5,0,0,1,.552.832l-.55.416L48.985,12.6a.5.5,0,0,1,.58.809L46.6,16.011l5-2.887a.5.5,0,0,1,.588.8L49.621,16.3l2.1-1.212a.5.5,0,0,1,.613.777l-.909.961.3-.171a.5.5,0,0,1,.671.7l-.323.5a.493.493,0,0,1,.248.215.5.5,0,0,1-.182.683l-1.123.648a.5.5,0,0,1-.671-.7l.1-.155-1.486.858a.5.5,0,0,1-.613-.777l.909-.961L46.239,19.4a.5.5,0,0,1-.589-.8l2.568-2.373-5.5,3.173A.5.5,0,0,1,42.473,19.471Z"/><path class="cls-4" d="M35.159,53.5a.5.5,0,0,1-.268-.922l4.689-2.99-6.3,3.637a.5.5,0,0,1-.514-.857l1.739-1.088-1.225.707a.5.5,0,0,1-.526-.848l11.7-7.777L33.28,49.809a.5.5,0,0,1-.516-.856l1.014-.64-.5.288a.5.5,0,0,1-.528-.848l7.263-4.871L33.28,46.77a.5.5,0,0,1-.541-.84L40.193,40.6,33.28,44.6a.5.5,0,0,1-.542-.839l4.623-3.327L33.28,42.784a.5.5,0,0,1-.552-.83L36.092,39.4,33.28,41.018a.5.5,0,0,1-.571-.816l2.248-1.886-1.677.968a.5.5,0,0,1-.609-.78l1.215-1.253-.606.35a.5.5,0,0,1-.737-.547l.3-1.273a.49.49,0,0,1-.244-.213.5.5,0,0,1,.182-.682l.5-.289a.5.5,0,0,1,.548.031.5.5,0,0,1,.19.516l-.239,1.013,2.711-1.564a.5.5,0,0,1,.61.78l-1.215,1.253,3.527-2.036a.5.5,0,0,1,.571.815l-2.245,1.883,4.681-2.7a.5.5,0,0,1,.553.83L39.6,37.979l5.881-3.4a.5.5,0,0,1,.542.839l-4.623,3.327,7.224-4.17a.5.5,0,0,1,.541.84l-7.454,5.326L52.4,34.574a.5.5,0,0,1,.529.848l-7.264,4.871,9.912-5.722a.5.5,0,0,1,.517.856l-1.017.64,2.6-1.5a.5.5,0,0,1,.526.849l-11.7,7.777,12.216-7.052a.5.5,0,0,1,.514.856l-1.722,1.077,1.21-.7a.5.5,0,0,1,.518.854l-4.7,3,4.189-2.418a.5.5,0,0,1,.52.854L55.69,41.95,58.729,40.2a.5.5,0,0,1,.525.851L54.767,44l3.964-2.289a.5.5,0,0,1,.539.842l-6.328,4.456,5.793-3.344a.5.5,0,0,1,.554.83L53.8,48.689l4.935-2.848a.5.5,0,0,1,.541.839l-1.054.755.515-.3a.5.5,0,0,1,.582.806l-2.4,2.128,1.822-1.051a.492.492,0,0,1,.625.1.5.5,0,0,1,.024.633L58.22,51.3l.527-.3a.5.5,0,0,1,.726.586l-.217.673a.5.5,0,0,1-.007.861l-.5.289a.494.494,0,0,1-.564-.044.5.5,0,0,1-.162-.542l.1-.308-1.554.9a.5.5,0,0,1-.648-.735l1.173-1.542L53.14,53.41a.5.5,0,0,1-.582-.806l2.4-2.128L49.87,53.413a.5.5,0,0,1-.541-.839l1.056-.756-2.769,1.6a.5.5,0,0,1-.554-.83l5.484-4.193-8.71,5.028a.5.5,0,0,1-.538-.842l6.323-4.453-9.179,5.3a.5.5,0,0,1-.524-.851l4.489-2.954-6.595,3.808a.5.5,0,0,1-.521-.854l3.571-2.292L35.409,53.43A.494.494,0,0,1,35.159,53.5Z"/><path class="cls-5" d="M.293,56.521c.368,3.153,3.775,2.762,6.067,2.762H29.527c.015,0,.043-.008.063-.01a.886.886,0,0,0,.092,0,4.276,4.276,0,0,0,3.663-2.053,5.983,5.983,0,0,0,4.808,2.168c3.1.017,6.2,0,9.3,0,2.4,0,5.073.327,7.452-.114a5.905,5.905,0,0,0,4.545-3.731,8.5,8.5,0,0,0,.277-2.845V34.156c-.071-3.887-2.135-6.828-5.279-8.922A11.027,11.027,0,0,1,51.43,22.92a5.5,5.5,0,0,1-.713-3.446h.018c.021,0,.046,0,.068,0,.039,0,.082.006.117,0a1.8,1.8,0,0,0,1.81-1.636c.015-.615,0-1.232,0-1.847,0-.649.012-1.3,0-1.948a1.454,1.454,0,0,0-1.465-1.515c-.8-.046-1.616,0-2.417,0H44.22c-.972,0-1.945-.015-2.917,0a1.925,1.925,0,0,0-2.019,1.383,8.958,8.958,0,0,0-.014,1.456v2.211c0,.614-.005,1.228.573,1.619a2.605,2.605,0,0,0,1.431.318c0,1.84-.075,3.5-1.788,4.672a29.393,29.393,0,0,0-4.039,2.9,9.617,9.617,0,0,0-1.723,2.261V5.723c0-1.894.148-4.031-2.092-4.812A7.067,7.067,0,0,0,29.3.717h-4.07c-6.8,0-13.593-.051-20.388,0C2.465.735.305,1.894.276,4.5c-.021,1.787,0,3.575,0,5.362V52.749A33.189,33.189,0,0,0,.293,56.521ZM58.315,52.7H33.724V35.374H58.276V50.643C58.276,51.3,58.308,52,58.315,52.7Zm-1.589,4.953a4.906,4.906,0,0,1-3.624.957H39.473a6.573,6.573,0,0,1-3.133-.477,4.946,4.946,0,0,1-2.616-4.5V53.3H58.312A5.574,5.574,0,0,1,56.726,57.653Zm-16-40.395c0-1.095-.093-2.233,0-3.325.011-.13.144-.488.084-.461a2.189,2.189,0,0,1,.269,0h8.866a5.09,5.09,0,0,1,.781,0c.653.106.54.828.54,1.315v2.263c0,.183.107,1.438-.186,1.474H41.8a2.609,2.609,0,0,1-.612-.013C40.629,18.374,40.73,17.693,40.73,17.258Zm-3.3,9.307c1.248-.971,2.776-1.641,3.928-2.728,1.293-1.22,1.371-2.756,1.371-4.363h6.547a7,7,0,0,0,.48,3.465A7.831,7.831,0,0,0,52.7,25.523a14.615,14.615,0,0,1,3.341,2.742,10.068,10.068,0,0,1,2.236,6.279v.082H33.724v-.453A9.821,9.821,0,0,1,37.427,26.565ZM1.724,3.831A2.4,2.4,0,0,1,4.038,1.283H27.87c.549,0,1.108-.031,1.657,0a2.949,2.949,0,0,1,2.749,3.1c.081,4.577,0,9.162,0,13.739,0,5.536.024,11.072.041,16.609q-.041.685-.041,1.387c0,5.948-.058,11.9,0,17.847,0,.058.007.113.009.17,0,.57,0,1.14-.009,1.71-.013,1.213-.482,2.767-1.92,2.872H4.985a2.989,2.989,0,0,1-3.243-2.584A9.959,9.959,0,0,1,1.724,55V16.19C1.724,12.1,1.489,7.922,1.724,3.831Z"/><path class="cls-5" d="M10.788,13.394a4.738,4.738,0,0,0,3.943-4.462,4.426,4.426,0,0,0-2.969-4.159,5.078,5.078,0,0,0-5.4,1.447A4.412,4.412,0,0,0,5.9,11.356,4.672,4.672,0,0,0,10.788,13.394Zm.381-1.057a3.2,3.2,0,0,1-3.194-.7l4.617-4.617a3.71,3.71,0,0,1,.677,2.052A3.464,3.464,0,0,1,11.169,12.337ZM7.2,7.1a3.034,3.034,0,0,1,3.247-1.55,3.388,3.388,0,0,1,1.584.812L7.4,10.989A3.7,3.7,0,0,1,7.2,7.1Z"/><path class="cls-5" d="M20.516,12.113a.417.417,0,0,0,.129.121,4.831,4.831,0,0,0,4.222,1.07,4.7,4.7,0,0,0,3.858-4.391c0-.022-.013-.034-.016-.054s.016-.034.015-.053a4.185,4.185,0,0,0-1.213-2.875.413.413,0,0,0-.185-.182,4.479,4.479,0,0,0-1.651-.959,5.185,5.185,0,0,0-5.358,1.549,4.293,4.293,0,0,0-.4,5.042A3.986,3.986,0,0,0,20.516,12.113Zm4.579.329a3.185,3.185,0,0,1-3.033-.716q2.3-2.3,4.6-4.6a4.056,4.056,0,0,1,.608,2.013A3.507,3.507,0,0,1,25.1,12.442ZM21.24,6.974a2.948,2.948,0,0,1,3.3-1.45,3.387,3.387,0,0,1,1.4.748l-4.613,4.613A3.78,3.78,0,0,1,21.24,6.974Z"/><path class="cls-5" d="M20.475,26.045a.423.423,0,0,0,.27.249l.012,0a4.763,4.763,0,0,0,4.086.885,4.646,4.646,0,0,0,3.881-4.375,4.144,4.144,0,0,0-1.188-2.833.422.422,0,0,0-.281-.267l-.009,0a4.175,4.175,0,0,0-1.523-.838A5.44,5.44,0,0,0,20.3,20.44a4.037,4.037,0,0,0,.175,5.605Zm4.6.532a3.238,3.238,0,0,1-3.031-.832q2.31-2.311,4.622-4.622a4.092,4.092,0,0,1,.609,2.071A3.619,3.619,0,0,1,25.076,26.577Zm-3.848-5.655a3.358,3.358,0,0,1,1.519-1.432,2.625,2.625,0,0,1,1.743-.046,3.669,3.669,0,0,1,1.461.816L21.32,24.89A3.937,3.937,0,0,1,21.228,20.922Z"/><path class="cls-5" d="M20.467,40.049a.17.17,0,0,0,.031.028,4.737,4.737,0,0,0,4.358,1.153,4.67,4.67,0,0,0,3.868-4.424,4.2,4.2,0,0,0-1.176-2.831.127.127,0,0,0-.045-.051,4.155,4.155,0,0,0-1.787-1.083,5.348,5.348,0,0,0-5.423,1.574,4.208,4.208,0,0,0-.351,4.991A4.133,4.133,0,0,0,20.467,40.049Zm4.64.465a3.223,3.223,0,0,1-3.135-.851l4.634-4.635a4.065,4.065,0,0,1,.67,2.166A3.566,3.566,0,0,1,25.107,40.514Zm-3.876-5.576A2.864,2.864,0,0,1,24.5,33.469a3.594,3.594,0,0,1,1.534.866l-4.648,4.648A3.876,3.876,0,0,1,21.231,34.938Z"/><path class="cls-5" d="M20.558,54.182l.006.007a4.848,4.848,0,0,0,4.28,1.236,4.745,4.745,0,0,0,3.889-4.482,4.523,4.523,0,0,0-1.287-3.119l-.022-.02a4.432,4.432,0,0,0-1.67-1.058,5.036,5.036,0,0,0-5.4,1.447,4.458,4.458,0,0,0-.455,5.173A4.129,4.129,0,0,0,20.558,54.182Zm4.6.117a3.185,3.185,0,0,1-3.076-.588l4.582-4.581a3.675,3.675,0,0,1,.6,1.927A3.43,3.43,0,0,1,25.159,54.3ZM21.2,49.121a3.075,3.075,0,0,1,3.311-1.528,3.3,3.3,0,0,1,1.4.695l-4.586,4.587A3.653,3.653,0,0,1,21.2,49.121Z"/><path class="cls-5" d="M13.383,19.831a4.18,4.18,0,0,0-1.652-.936,5.571,5.571,0,0,0-5.415,1.562,4.11,4.11,0,0,0-.365,4.963,4.063,4.063,0,0,0,.538.635.253.253,0,0,0,.131.116,4.7,4.7,0,0,0,4.208.953,4.606,4.606,0,0,0,3.9-4.318,4.1,4.1,0,0,0-1.19-2.825A.243.243,0,0,0,13.383,19.831ZM7.224,20.907a3.516,3.516,0,0,1,1.51-1.467,2.537,2.537,0,0,1,1.748-.025,3.708,3.708,0,0,1,1.531.885L7.36,24.953A3.964,3.964,0,0,1,7.224,20.907Zm3.867,5.726a3.269,3.269,0,0,1-3.1-.934l4.641-4.641a4.113,4.113,0,0,1,.647,2.136A3.717,3.717,0,0,1,11.091,26.633Z"/><path class="cls-5" d="M13.461,33.885a4.167,4.167,0,0,0-1.74-1.026A5.415,5.415,0,0,0,6.3,34.433a4.175,4.175,0,0,0-.347,4.987,4.265,4.265,0,0,0,.5.6.255.255,0,0,0,.113.1,4.724,4.724,0,0,0,4.287,1.07,4.654,4.654,0,0,0,3.877-4.389A4.156,4.156,0,0,0,13.567,34,.2.2,0,0,0,13.461,33.885ZM7.229,34.926a2.807,2.807,0,0,1,3.262-1.475,3.674,3.674,0,0,1,1.526.869L7.37,38.968A3.923,3.923,0,0,1,7.229,34.926Zm3.843,5.637a3.261,3.261,0,0,1-3.091-.881l4.637-4.637a4.075,4.075,0,0,1,.658,2.149A3.6,3.6,0,0,1,11.072,40.563Z"/><path class="cls-5" d="M13.358,47.81a4.2,4.2,0,0,0-1.628-.918A5.552,5.552,0,0,0,6.31,48.46a4,4,0,0,0,.175,5.592.29.29,0,0,0,.158.139,4.71,4.71,0,0,0,4.187.94,4.612,4.612,0,0,0,3.894-4.325,4.1,4.1,0,0,0-1.189-2.824A.275.275,0,0,0,13.358,47.81Zm-6.134,1.1a3.493,3.493,0,0,1,1.511-1.463,2.549,2.549,0,0,1,1.748-.028A3.687,3.687,0,0,1,12,48.291L7.352,52.94A3.962,3.962,0,0,1,7.224,48.909Zm3.865,5.717A3.261,3.261,0,0,1,8,53.709l4.639-4.639a4.121,4.121,0,0,1,.639,2.124A3.7,3.7,0,0,1,11.089,54.626Z"/><path class="cls-5" d="M52.283,41.593h-12c-.291,0-.812.1-.957.394s.121.42.391.42h12c.291,0,.812-.1.957-.394S52.553,41.593,52.283,41.593Z"/><path class="cls-5" d="M49.073,46.5h-6c-.3,0-.762.231-.8.563-.048.371.4.435.659.435h6c.3,0,.762-.231.8-.563C49.78,46.565,49.334,46.5,49.073,46.5Z"/></svg>