<!DOCTYPE svg PUBLIC "-//W3C//DTD SVG 1.1//EN" "http://www.w3.org/Graphics/SVG/1.1/DTD/svg11.dtd">
<!-- Uploaded to: SVG Repo, www.svgrepo.com, Transformed by: SVG Repo Mixer Tools -->
<svg version="1.1" id="Layer_1" xmlns="http://www.w3.org/2000/svg" xmlns:xlink="http://www.w3.org/1999/xlink" viewBox="0 0 512 512" xml:space="preserve" width="800px" height="800px" fill="#000000">
<g id="SVGRepo_bgCarrier" stroke-width="0"/>
<g id="SVGRepo_tracerCarrier" stroke-linecap="round" stroke-linejoin="round"/>
<g id="SVGRepo_iconCarrier"> <path style="fill:#080707;" d="M288.021,288.022V87.887c0-44.213,35.842-80.053,80.053-80.053l0,0 c44.213,0,80.053,35.842,80.053,80.053v328.221c0,44.213-35.842,80.053-80.053,80.053l0,0c-35.857,0-66.209-23.576-76.4-56.072"/> <path style="fill:#272525;" d="M339.418,440.089l-3.943-152.068V87.887c0-35.844,23.849-66.175,56.326-76.377 c-7.583-2.382-15.797-3.676-24.166-3.676c-44.213,0-80.204,35.841-80.204,80.053v200.134l3.949,152.068 c10.19,32.496,40.689,56.072,76.547,56.072c8.392,0,16.406-1.305,24.007-3.698C367.007,484.648,347.235,465.016,339.418,440.089z"/> <path style="fill:#FFFFFF;" d="M288.021,288.022v-40.027c0,0,34.636-25.747,80.053-24.017c47.661,1.817,80.053,24.017,80.053,24.017 v168.113c0,44.213-35.842,80.053-80.053,80.053l0,0c-35.857,0-66.209-23.576-76.4-56.072"/> <path style="fill:#F2F2F2;" d="M325.664,236.162c0,0,0.614,142.226,0.147,192.129c-0.457,48.868,39.251,60.535,64.179,68.349 c-7.601,2.395-15.649,3.698-24.042,3.698c-35.858,0-66.486-23.576-76.676-56.072l-3.93-152.068v-32.021 C285.343,260.177,293.46,235.448,325.664,236.162z"/> <path style="fill:#2e2e2e;" d="M63.925,343.995v40.091c0,66.319,53.79,120.081,120.109,120.081s120.109-53.762,120.109-120.081 v-40.091"/> <path style="fill:#181617;" d="M63.925,344.059v40.027c0,66.319,53.266,120.081,120.109,120.081V464.14 C184.034,464.139,78.547,467.35,63.925,344.059z"/> <g> <circle style="fill:#2e2e2e;" cx="183.955" cy="344.055" r="120.078"/> <circle style="fill:#2e2e2e;" cx="183.955" cy="344.055" r="120.078"/> </g> <path style="fill:#181617;" d="M280.016,336.054H120.199c3.501-53.065,41.499-96.616,91.771-108.654 c-9.004-2.156-18.354-3.422-28.019-3.422c-66.319,0-120.081,53.762-120.081,120.081c0,66.318,53.762,120.081,120.081,120.081 c9.665,0,19.015-1.265,28.019-3.422c-50.271-12.038-88.269-55.59-91.771-108.654h159.816V336.054z"/> <rect x="87.941" y="327.282" width="192.175" height="15.666"/> <path d="M368.075,0c-48.46,0-87.886,39.426-87.886,87.886v172.006c-23.464-26.796-57.906-43.747-96.238-43.747 c-70.188,0-127.345,56.826-127.901,126.885h-0.013l0.575,41.11c0.015,34.168,13.226,66.264,37.202,90.378 C117.848,498.689,149.889,512,184.034,512s66.185-13.311,90.218-37.481c5.762-5.794,10.894-12.055,15.379-18.688 c14.748,29.298,44.721,48.164,78.445,48.164c48.46,0,87.886-39.426,87.886-87.886V87.886C455.962,39.426,416.536,0,368.075,0z M368.075,15.666c39.823,0,72.22,32.398,72.22,72.22v148.075c-3.495-2.72-7.537-5.248-12.111-7.536 c-16.186-8.093-37.535-12.389-60.11-12.389s-43.923,4.349-60.11,12.442c-4.575,2.287-8.617,4.813-12.111,7.526V87.886 C295.855,48.065,328.252,15.666,368.075,15.666z M263.142,463.473c-21.07,21.19-49.164,32.861-79.108,32.861 s-58.038-11.67-79.108-32.861c-14.283-14.364-24.205-31.962-29.113-51.168c22.692,35.829,62.682,59.668,108.139,59.668 c45.649,0,85.782-24.042,108.423-60.122C287.506,431.233,277.537,448.995,263.142,463.473z M183.951,456.306 c-60.646,0-110.205-48.345-112.179-108.52l-0.061-4.344c0.333-61.611,50.551-111.631,112.239-111.631 c61.894,0,112.248,50.354,112.248,112.248C296.199,405.953,245.845,456.306,183.951,456.306z M440.295,416.108 c0,39.822-32.398,72.22-72.22,72.22c-31.442,0-58.911-19.957-68.645-49.746c7.872-16.807,12.023-35.29,12.022-54.395l0.412-40.092 c0-0.013,0-0.024,0-0.037c0-22.442-5.816-43.547-16.01-61.902v-18.583c0-14.622,29.66-32.193,72.22-32.193 s72.22,17.571,72.22,32.193v152.535H440.295z"/> <path d="M367.853,471.972v-15.666c21.933,0,40.42-18.313,40.42-40.246h15.666C423.94,447.393,399.186,471.972,367.853,471.972z"/> <g> <rect x="335.47" y="176.884" style="fill:#FFFFFF;" width="16.711" height="15.666"/> <rect x="360.537" y="176.884" style="fill:#FFFFFF;" width="15.666" height="15.666"/> <rect x="384.559" y="176.884" style="fill:#FFFFFF;" width="15.666" height="15.666"/> </g> </g>
</svg>