<?xml version="1.0" ?><svg id="Pill" style="enable-background:new 0 0 32 32;" version="1.1" viewBox="0 0 32 32" xml:space="preserve" xmlns="http://www.w3.org/2000/svg" xmlns:xlink="http://www.w3.org/1999/xlink"><style type="text/css">
	.st0{fill:#E4EDF2;}
	.st1{fill:#55C1FA;}
	.st2{fill:#FFFFFF;}
</style><g><path class="st0" d="M9.55,10.97l-5.17,5.16C2.84,17.67,2,19.71,2,21.88c0,2.16,0.84,4.2,2.38,5.74C5.92,29.16,7.96,30,10.12,30   c2.17,0,4.21-0.84,5.75-2.38l5.17-5.16L9.55,10.97z"/><path class="st1" d="M27.62,4.38C26.08,2.84,24.04,2,21.88,2c-2.17,0-4.21,0.84-5.75,2.38l-6.58,6.59l11.49,11.49l6.58-6.59   c1.53-1.54,2.38-3.58,2.38-5.75C30,7.96,29.15,5.92,27.62,4.38z M25.11,6.305C24.915,6.501,24.657,6.6,24.4,6.6   c-0.255,0-0.51-0.097-0.704-0.29c-1.002-0.994-2.631-0.994-3.631,0c-0.393,0.389-1.024,0.386-1.415-0.005   c-0.389-0.392-0.387-1.025,0.005-1.414c1.779-1.766,4.672-1.765,6.449,0C25.497,5.279,25.499,5.913,25.11,6.305z"/><path class="st2" d="M18.655,4.891c-0.392,0.389-0.394,1.022-0.005,1.414c0.391,0.391,1.022,0.394,1.415,0.005   c1-0.993,2.629-0.994,3.631,0C23.891,6.503,24.146,6.6,24.4,6.6c0.257,0,0.515-0.099,0.71-0.295   c0.389-0.392,0.387-1.025-0.006-1.415C23.327,3.125,20.435,3.125,18.655,4.891z"/></g></svg>